<svg id="Слой_1" data-name="Слой 1" xmlns="http://www.w3.org/2000/svg" xmlns:xlink="http://www.w3.org/1999/xlink" viewBox="0 0 43.58 49.03"><defs><linearGradient id="Безымянный_градиент_5" x1="-6.91" y1="8.65" x2="60.7" y2="46.04" gradientUnits="userSpaceOnUse"><stop offset="0" stop-color="#ff8409"/><stop offset="1" stop-color="#ff00c5"/></linearGradient><linearGradient id="Безымянный_градиент_5-2" x1="-11.51" y1="21.28" x2="56.1" y2="58.67" xlink:href="#Безымянный_градиент_5"/><linearGradient id="Безымянный_градиент_5-3" x1="27.6" y1="18.6" x2="36.32" y2="27.06" xlink:href="#Безымянный_градиент_5"/></defs><title>stkr-post</title><path d="M39.5,0H4.09A4.1,4.1,0,0,0,0,4.09V45A4.1,4.1,0,0,0,4.09,49H39.5A4.09,4.09,0,0,0,43.58,45V4.09A4.09,4.09,0,0,0,39.5,0ZM6.13,2.72A3.41,3.41,0,1,1,2.72,6.13,3.41,3.41,0,0,1,6.13,2.72ZM40.86,43.6a2.72,2.72,0,0,1-2.71,2.71H5.43A2.72,2.72,0,0,1,2.72,43.6V12.26H40.86Z" fill="url(#Безымянный_градиент_5)"/><path d="M14.58,29.35a1.29,1.29,0,0,1,2,0l8,10.28L30,33.09a1.28,1.28,0,0,1,2,0l6.41,8.25a1.28,1.28,0,0,1-1,2.07H6.58a1.28,1.28,0,0,1-1-2Z" fill="url(#Безымянный_градиент_5-2)"/><circle cx="31.13" cy="22.02" r="3.41" fill="url(#Безымянный_градиент_5-3)"/></svg>