<svg xmlns="http://www.w3.org/2000/svg" xmlns:xlink="http://www.w3.org/1999/xlink" viewBox="0 0 495.07 429.88" height="200" width="200">
<defs>
  <linearGradient id="Безымянный_градиент_8" x1="247.93" y1="26.26" x2="247.93" y2="408.82" gradientUnits="userSpaceOnUse">
    <stop offset="0" stop-color="#5655fc"/>
    <stop offset="1" stop-color="#fd077f"/>
  </linearGradient>
  <linearGradient id="Безымянный_градиент_8-2" x1="247.93" y1="26.26" x2="247.93" y2="408.82" xlink:href="#Безымянный_градиент_8"/>
</defs>
<path d="M469.06,74.39a158.05,158.05,0,0,0-54.75-53.71C387.66,5,358.88-1.63,328.09.34A149.15,149.15,0,0,0,252,26.4a18.23,18.23,0,0,0-2,1.42,3.22,3.22,0,0,1-4.79,0,17.36,17.36,0,0,0-2-1.42A149.12,149.12,0,0,0,167,.34c-30.79-2-59.57,4.69-86.21,20.34A158.08,158.08,0,0,0,26,74.39C6.85,105.18-1.56,138.85.24,174.94c1.75,35.19,14.62,66.43,35.64,94.4,5.8,7.71,12.21,15,18.51,22.29,1.64,1.9,2.26,3.54,1.08,5.78a13.38,13.38,0,0,0-.87,2.34c-5.47,18.6-1.84,35.19,12.29,48.55,14.79,14,32.28,16.46,50.93,8.81,4.05-1.67,6.71-1.84,9.46,1.45a14.75,14.75,0,0,0,1.84,1.69,759.25,759.25,0,0,0,73.38,56.16,74.91,74.91,0,0,0,36.29,13c2.91.23,5.83.36,8.75.45,2.92-.09,5.83-.22,8.74-.45a75,75,0,0,0,36.3-13A760.35,760.35,0,0,0,366,360.25a14.75,14.75,0,0,0,1.84-1.69c2.76-3.29,5.41-3.12,9.47-1.45,18.65,7.65,36.14,5.18,50.93-8.81,14.12-13.36,17.75-29.95,12.28-48.55a12,12,0,0,0-.87-2.34c-1.18-2.24-.56-3.88,1.08-5.78,6.31-7.31,12.71-14.58,18.51-22.29,21-28,33.89-59.21,35.65-94.4C496.63,138.85,488.23,105.18,469.06,74.39Z" fill="#fcfbfd"/>
<path d="M105.67,246.24c-22-25.5-36.44-50.82-36.44-83,0-52.06,39.73-94.4,88.55-94.4,39,0,61.05,24.32,68.73,34.78a26.58,26.58,0,0,0,42.84,0C277,93.2,299.1,68.88,338.07,68.88c48.83,0,88.55,42.34,88.55,94.4,0,32.14-14.48,57.46-36.44,83,11.1,12.63,21.41,24.62,28.39,32.8,29.11-32.72,51.05-68.05,51.05-115.76a140.29,140.29,0,0,0-37.37-96C407.41,40.57,374,25.88,338.07,25.88c-43.58,0-73.11,20.22-90.14,37.06-17-16.84-46.57-37.06-90.15-37.06-35.88,0-69.33,14.69-94.17,41.38a140.3,140.3,0,0,0-37.38,96c0,47.71,21.94,83,51.05,115.76C84.27,270.86,94.57,258.87,105.67,246.24Z" fill="url(#Безымянный_градиент_8)"/>
<path d="M262.23,357.37a28.07,28.07,0,0,1-28.6,0c-19.28-11.43-47-29.88-72.64-54.38-11.85,13.56-22.47,26-28.1,32.61,28.11,26.53,58,46.4,78.81,58.76a71,71,0,0,0,72.45,0C305,382,334.85,362.13,363,335.6c-5.62-6.62-16.24-19.05-28.1-32.61C309.22,327.49,281.5,345.94,262.23,357.37Z" fill="url(#Безымянный_градиент_8-2)"/>
<path d="M364.71,244.63V149.07h-55v38.68c-13.45-12.88-25.46-23.61-38-34a37.2,37.2,0,0,0-47.51,0c-20.44,17-39.46,34.77-65.66,61.41C131.72,242.36,84,298.87,82,301.26A21.5,21.5,0,1,0,114.9,329c.49-.57,48.62-57.63,74.27-83.7,23.82-24.22,40.69-40.13,58.76-55.37,18.06,15.24,34.93,31.15,58.76,55.37,25.63,26.06,73.78,83.13,74.26,83.7a21.5,21.5,0,1,0,32.88-27.72C412.41,299.58,388.23,270.92,364.71,244.63Z" fill="url(#Безымянный_градиент_8)"/>
<rect x="220.42" y="259.61" width="55.02" height="55.02" rx="10.34" fill="url(#Безымянный_градиент_8)"/>
</svg>